<svg xmlns="http://www.w3.org/2000/svg" xmlns:svg="http://www.w3.org/2000/svg" id="svg2" width="828.021" height="728.464" version="1.1"><metadata id="metadata7"/><g id="layer1" transform="translate(2.8783007,-627.0006)"><path style="fill:#fff;fill-opacity:1;fill-rule:evenodd;stroke:none" id="path3013" d="m -1.5402107,628.30118 0,270.12505 359.3788807,0 0,-270.12505 -359.3788807,0 z"/><path style="fill:#000;fill-opacity:1;fill-rule:nonzero;stroke:#000;stroke-width:.03751737px;stroke-linecap:butt;stroke-linejoin:round;stroke-opacity:1;stroke-dasharray:none" id="path3015" d="m -2.8158007,628.30118 c 0,-0.67532 0.56276,-1.23808 1.27559,-1.23808 l 379.5819307,0 c 0.71283,0 1.27559,0.56276 1.27559,1.23808 l 0,270.12505 c 0,0.71283 -0.56276,1.27559 -1.27559,1.27559 l -379.5819307,0 c -0.71283,0 -1.27559,-0.56276 -1.27559,-1.27559 z m 2.513663,270.12505 -1.238073,-1.23807 379.5819307,0 -1.23807,1.23807 0,-270.12505 1.23807,1.27559 -379.5819307,0 1.238073,-1.27559 z"/><text id="text3017" x="88.608" y="654.788" xml:space="preserve" style="font-size:22.51042175px;font-style:normal;font-weight:400;text-align:start;text-anchor:start;fill:#000;font-family:Cambria">Environment Code</text><path style="fill:#fff;fill-opacity:1;fill-rule:evenodd;stroke:none" id="path3019" d="m 22.678872,707.12517 0,150.06947 142.566008,0 0,-150.06947 -142.566008,0 z"/><path style="fill:#000;fill-opacity:1;fill-rule:nonzero;stroke:#000;stroke-width:.01875868px;stroke-linecap:butt;stroke-linejoin:round;stroke-opacity:1;stroke-dasharray:none" id="path3021" d="m 22.209905,707.12517 c 0,-0.26262 0.225104,-0.46897 0.468967,-0.46897 l 142.566008,0 c 0.26262,0 0.46897,0.20635 0.46897,0.46897 l 0,150.06947 c 0,0.26262 -0.20635,0.46897 -0.46897,0.46897 l -142.566008,0 c -0.243863,0 -0.468967,-0.20635 -0.468967,-0.46897 z m 0.937934,150.06947 -0.468967,-0.46896 142.566008,0 -0.46897,0.46896 0,-150.06947 0.46897,0.46896 -142.566008,0 0.468967,-0.46896 z"/><text id="text3023" x="66.186" y="733.602" xml:space="preserve" style="font-size:22.51042175px;font-style:normal;font-weight:400;text-align:start;text-anchor:start;fill:#000;font-family:Cambria">State</text><path style="fill:#fff;fill-opacity:1;fill-rule:evenodd;stroke:none" id="path3025" d="m 45.189293,775.03161 0,29.63872 33.39046,0 0,-29.63872 -33.39046,0 z"/><path style="fill:#000;fill-opacity:1;fill-rule:nonzero;stroke:#000;stroke-width:.01875868px;stroke-linecap:butt;stroke-linejoin:round;stroke-opacity:1;stroke-dasharray:none" id="path3027" d="m 43.95122,775.03161 c 0,-0.69408 0.562761,-1.25684 1.238073,-1.25684 l 33.39046,0 c 0.69407,0 1.25683,0.56276 1.25683,1.25684 l 0,29.63872 c 0,0.69407 -0.56276,1.25683 -1.25683,1.25683 l -33.39046,0 c -0.675312,0 -1.238073,-0.56276 -1.238073,-1.25683 z m 2.494905,29.63872 -1.256832,-1.25684 33.39046,0 -1.23807,1.25684 0,-29.63872 1.23807,1.25683 -33.39046,0 1.256832,-1.25683 z"/><text id="text3029" x="56.099" y="796.67" xml:space="preserve" style="font-size:19.95923996px;font-style:normal;font-weight:400;text-align:start;text-anchor:start;fill:#000;font-family:Calibri">A</text><path style="fill:#fff;fill-opacity:1;fill-rule:evenodd;stroke:none" id="path3031" d="m 101.09017,775.03161 0,29.63872 33.39047,0 0,-29.63872 -33.39047,0 z"/><path style="fill:#000;fill-opacity:1;fill-rule:nonzero;stroke:#000;stroke-width:.01875868px;stroke-linecap:butt;stroke-linejoin:round;stroke-opacity:1;stroke-dasharray:none" id="path3033" d="m 99.852103,775.03161 c 0,-0.69408 0.543997,-1.25684 1.238067,-1.25684 l 33.39047,0 c 0.69407,0 1.25683,0.56276 1.25683,1.25684 l 0,29.63872 c 0,0.69407 -0.56276,1.25683 -1.25683,1.25683 l -33.39047,0 c -0.69407,0 -1.238067,-0.56276 -1.238067,-1.25683 z m 2.494897,29.63872 -1.25683,-1.25684 33.39047,0 -1.25683,1.25684 0,-29.63872 1.25683,1.25683 -33.39047,0 1.25683,-1.25683 z"/><text id="text3035" x="112.447" y="796.67" xml:space="preserve" style="font-size:19.95923996px;font-style:normal;font-weight:400;text-align:start;text-anchor:start;fill:#000;font-family:Calibri">B</text><path style="fill:#fff;fill-opacity:1;fill-rule:evenodd;stroke:none" id="path3037" d="m 101.09017,744.64254 0,30.01389 33.39047,0 0,-30.01389 -33.39047,0 z"/><path style="fill:#000;fill-opacity:1;fill-rule:nonzero;stroke:#000;stroke-width:.01875868px;stroke-linecap:butt;stroke-linejoin:round;stroke-opacity:1;stroke-dasharray:none" id="path3039" d="m 99.852103,744.64254 c 0,-0.69408 0.543997,-1.25684 1.238067,-1.25684 l 33.39047,0 c 0.69407,0 1.25683,0.56276 1.25683,1.25684 l 0,30.01389 c 0,0.69407 -0.56276,1.25683 -1.25683,1.25683 l -33.39047,0 c -0.69407,0 -1.238067,-0.56276 -1.238067,-1.25683 z m 2.494897,30.01389 -1.25683,-1.25683 33.39047,0 -1.25683,1.25683 0,-30.01389 1.25683,1.25683 -33.39047,0 1.25683,-1.25683 z"/><text id="text3041" x="112.447" y="766.467" xml:space="preserve" style="font-size:19.95923996px;font-style:normal;font-weight:400;text-align:start;text-anchor:start;fill:#000;font-family:Calibri">C</text><path style="fill:#fff;fill-opacity:1;fill-rule:evenodd;stroke:none" id="path3043" d="m 30.182346,804.67033 0,30.38907 120.055584,0 0,-30.38907 -120.055584,0 z"/><path style="fill:#000;fill-opacity:1;fill-rule:nonzero;stroke:#000;stroke-width:.01875868px;stroke-linecap:butt;stroke-linejoin:round;stroke-opacity:1;stroke-dasharray:none" id="path3045" d="m 28.944273,804.67033 c 0,-0.69407 0.56276,-1.25684 1.238073,-1.25684 l 120.055584,0 c 0.69407,0 1.25683,0.56277 1.25683,1.25684 l 0,30.38907 c 0,0.69407 -0.56276,1.25683 -1.25683,1.25683 l -120.055584,0 c -0.675313,0 -1.238073,-0.56276 -1.238073,-1.25683 z m 2.494905,30.38907 -1.256832,-1.25684 120.055584,0 -1.23807,1.25684 0,-30.38907 1.23807,1.25683 -120.055584,0 1.256832,-1.25683 z"/><text id="text3047" x="69.641" y="826.684" xml:space="preserve" style="font-size:19.95923996px;font-style:normal;font-weight:400;text-align:start;text-anchor:start;fill:#000;font-family:Calibri">table</text><path style="fill:#fff;fill-opacity:1;fill-rule:evenodd;stroke:none" id="path3063" d="m 210.26572,707.12517 0,150.06947 142.566,0 0,-150.06947 -142.566,0 z"/><path style="fill:#000;fill-opacity:1;fill-rule:nonzero;stroke:#000;stroke-width:.01875868px;stroke-linecap:butt;stroke-linejoin:round;stroke-opacity:1;stroke-dasharray:none" id="path3065" d="m 209.79676,707.12517 c 0,-0.26262 0.2251,-0.46897 0.46896,-0.46897 l 142.566,0 c 0.26263,0 0.46897,0.20635 0.46897,0.46897 l 0,150.06947 c 0,0.26262 -0.20634,0.46897 -0.46897,0.46897 l -142.566,0 c -0.24386,0 -0.46896,-0.20635 -0.46896,-0.46897 z m 0.93793,150.06947 -0.46897,-0.46896 142.566,0 -0.46896,0.46896 0,-150.06947 0.46896,0.46896 -142.566,0 0.46897,-0.46896 z"/><text id="text3067" x="236.665" y="733.602" xml:space="preserve" style="font-size:22.51042175px;font-style:normal;font-weight:400;text-align:start;text-anchor:start;fill:#000;font-family:Cambria">Relations</text><path style="fill:#000;fill-opacity:1;fill-rule:nonzero;stroke:#000;stroke-width:.01875868px;stroke-linecap:butt;stroke-linejoin:round;stroke-opacity:1;stroke-dasharray:none" id="path3069" d="m 165.24488,780.753 42.24456,0 0,2.81381 -42.24456,0 z m 34.51598,-4.72718 10.52362,6.13409 -10.52362,6.13408 c -0.67531,0.39394 -1.53821,0.16883 -1.93214,-0.50648 -0.39394,-0.67531 -0.16883,-1.51945 0.50648,-1.91339 l 8.44141,-4.93353 0,2.43863 -8.44141,-4.93353 c -0.67531,-0.39394 -0.90042,-1.25684 -0.50648,-1.91339 0.39393,-0.67531 1.25683,-0.90042 1.93214,-0.50648 z"/><text id="text3071" x="226.287" y="765.717" xml:space="preserve" style="font-size:17.55812836px;font-style:normal;font-weight:400;text-align:start;text-anchor:start;fill:#000;font-family:Consolas">on(C, B)</text><text id="text3073" x="226.287" y="786.727" xml:space="preserve" style="font-size:17.55812836px;font-style:normal;font-weight:400;text-align:start;text-anchor:start;fill:#000;font-family:Consolas">on(A, table)</text><text id="text3075" x="226.287" y="807.736" xml:space="preserve" style="font-size:17.55812836px;font-style:normal;font-weight:400;text-align:start;text-anchor:start;fill:#000;font-family:Consolas">clear(A)</text><text id="text3077" x="226.287" y="828.746" xml:space="preserve" style="font-size:17.55812836px;font-style:normal;font-weight:400;text-align:start;text-anchor:start;fill:#000;font-family:Consolas">clear(C)</text><path style="fill:#fff;fill-opacity:1;fill-rule:evenodd;stroke:none" id="path3049" d="m 523.66544,628.30118 0,270.12505 300.13895,0 0,-270.12505 -300.13895,0 z"/><path style="fill:#000;fill-opacity:1;fill-rule:nonzero;stroke:#000;stroke-width:.03751737px;stroke-linecap:butt;stroke-linejoin:round;stroke-opacity:1;stroke-dasharray:none" id="path3051" d="m 480.28451,628.30118 c 0,-0.67532 0.56276,-1.23808 1.23807,-1.23808 l 342.28181,0 c 0.71283,0 1.2756,0.56276 1.2756,1.23808 l 0,270.12505 c 0,0.71283 -0.56277,1.27559 -1.2756,1.27559 l -342.28181,0 c -0.67531,0 -1.23807,-1.27559 -1.23807,-1.27559 z m 2.51367,270.12505 -1.2756,-1.23807 342.28181,0 -1.23807,1.23807 0,-270.12505 1.23807,1.27559 -342.28181,0 1.2756,-1.27559 z"/><text id="text3053" x="621.501" y="654.788" xml:space="preserve" style="font-size:22.51042175px;font-style:normal;font-weight:400;text-align:start;text-anchor:start;fill:#000;font-family:Cambria">Soar Agent</text><path style="fill:#fff;fill-opacity:1;fill-rule:evenodd;stroke:none" id="path3055" d="m 533.81227,680.82549 0,202.66883 240.71144,0 0,-202.66883 -240.71144,0 z"/><path style="fill:#000;fill-opacity:1;fill-rule:nonzero;stroke:#000;stroke-width:.03751737px;stroke-linecap:butt;stroke-linejoin:round;stroke-opacity:1;stroke-dasharray:none" id="path3057" d="m 533.32455,680.82549 c 0,-0.2251 0.2251,-0.45021 0.48772,-0.45021 l 240.71144,0 c 0.26262,0 0.45021,0.22511 0.45021,0.45021 l 0,202.66883 c 0,0.26262 -0.18759,0.45021 -0.45021,0.45021 l -240.71144,0 c -0.26262,0 -0.48772,-0.18759 -0.48772,-0.45021 z m 0.93793,202.66883 -0.45021,-0.48773 240.71144,0 -0.48773,0.48773 0,-202.66883 0.48773,0.48773 -240.71144,0 0.45021,-0.48773 z"/><text id="text3059" x="603.991" y="707.313" xml:space="preserve" style="font-size:22.51042175px;font-style:normal;font-weight:400;text-align:start;text-anchor:start;fill:#000;font-family:Cambria">Input Link</text><text id="text3079" x="552.478" y="743.183" xml:space="preserve" style="font-size:17.55812836px;font-style:normal;font-weight:400;text-align:start;text-anchor:start;fill:#000;font-family:Consolas">(I2 ^on O1 ^on O2</text><text id="text3081" x="591.196" y="764.193" xml:space="preserve" style="font-size:17.55812836px;font-style:normal;font-weight:400;text-align:start;text-anchor:start;fill:#000;font-family:Consolas">^clear C1</text><text id="text3083" x="591.196" y="785.203" xml:space="preserve" style="font-size:17.55812836px;font-style:normal;font-weight:400;text-align:start;text-anchor:start;fill:#000;font-family:Consolas">^clear C2)</text><text id="text3085" x="552.478" y="806.212" xml:space="preserve" style="font-size:17.55812836px;font-style:normal;font-weight:400;text-align:start;text-anchor:start;fill:#000;font-family:Consolas">(O1 ^top C ^bot B)</text><text id="text3087" x="552.478" y="827.222" xml:space="preserve" style="font-size:17.55812836px;font-style:normal;font-weight:400;text-align:start;text-anchor:start;fill:#000;font-family:Consolas">(O2 ^top A ^bot table)</text><text id="text3089" x="552.478" y="848.232" xml:space="preserve" style="font-size:17.55812836px;font-style:normal;font-weight:400;text-align:start;text-anchor:start;fill:#000;font-family:Consolas">(C1 ^</text><text id="text3091" x="600.8" y="848.232" xml:space="preserve" style="font-size:17.55812836px;font-style:normal;font-weight:400;text-align:start;text-anchor:start;fill:#000;font-family:Consolas">obj</text><text id="text3093" x="639.668" y="848.232" xml:space="preserve" style="font-size:17.55812836px;font-style:normal;font-weight:400;text-align:start;text-anchor:start;fill:#000;font-family:Consolas">A)</text><text id="text3095" x="552.478" y="869.241" xml:space="preserve" style="font-size:17.55812836px;font-style:normal;font-weight:400;text-align:start;text-anchor:start;fill:#000;font-family:Consolas">(C2 ^</text><text id="text3097" x="600.8" y="869.241" xml:space="preserve" style="font-size:17.55812836px;font-style:normal;font-weight:400;text-align:start;text-anchor:start;fill:#000;font-family:Consolas">obj</text><text id="text3099" x="639.668" y="869.241" xml:space="preserve" style="font-size:17.55812836px;font-style:normal;font-weight:400;text-align:start;text-anchor:start;fill:#000;font-family:Consolas">C)</text><path style="fill:#000;fill-opacity:1;fill-rule:nonzero;stroke:#000;stroke-width:.01875868px;stroke-linecap:butt;stroke-linejoin:round;stroke-opacity:1;stroke-dasharray:none" id="path3061" d="m 353.14356,780.753 177.50935,0 0,2.81381 -177.50935,0 z m 169.78077,-4.72718 10.52362,6.13409 -10.52362,6.13408 0,0 c -0.67531,0.39394 -1.53821,0.16883 -1.93214,-0.50648 -0.37518,-0.67531 -0.15007,-1.51945 0.50648,-1.91339 l 8.44141,-4.93353 0,2.43863 -8.44141,-4.93353 c -0.65655,-0.39394 -0.88166,-1.25684 -0.50648,-1.91339 0.39393,-0.67531 1.25683,-0.90042 1.93214,-0.50648 z"/><g id="g3985" transform="translate(0,28)"><path style="fill:#fff;fill-opacity:1;fill-rule:evenodd;stroke:none" id="path3254" d="m -1.5777307,978.04859 0,307.64241 172.5799007,0 0,-307.64241 -172.5799007,0 z"/><path style="fill:#000;fill-opacity:1;fill-rule:nonzero;stroke:#000;stroke-width:.03751737px;stroke-linecap:butt;stroke-linejoin:round;stroke-opacity:1;stroke-dasharray:none" id="path3256" d="m -2.8158007,978.04859 c 0,-0.67531 0.56276,-1.23807 1.23807,-1.23807 l 172.5799007,0 c 0.71283,0 1.27559,0.56276 1.27559,1.23807 l 0,307.64241 c 0,0.7129 -0.56276,1.2756 -1.27559,1.2756 l -172.5799007,0 c -0.67531,0 -1.23807,-0.5627 -1.23807,-1.2756 z m 2.51366005,307.64241 -1.27559005,-1.238 172.5799007,0 -1.23808,1.238 0,-307.64241 1.23808,1.27559 -172.5799007,0 1.27559005,-1.27559 z"/><text id="text3258" x="21.52" y="1004.536" xml:space="preserve" style="font-size:22.51042175px;font-style:normal;font-weight:400;text-align:start;text-anchor:start;fill:#000;font-family:Cambria">Environment</text><text id="text3260" x="60.689" y="1031.548" xml:space="preserve" style="font-size:22.51042175px;font-style:normal;font-weight:400;text-align:start;text-anchor:start;fill:#000;font-family:Cambria">Code</text><path style="fill:#fff;fill-opacity:1;fill-rule:evenodd;stroke:none" id="path3262" d="m 13.429219,1075.5938 0,180.0833 142.566001,0 0,-180.0833 -142.566001,0 z"/><path style="fill:#000;fill-opacity:1;fill-rule:nonzero;stroke:#000;stroke-width:.03751737px;stroke-linecap:butt;stroke-linejoin:round;stroke-opacity:1;stroke-dasharray:none" id="path3264" d="m 12.979009,1075.5938 c 0,-0.2251 0.2251,-0.4503 0.45021,-0.4503 l 142.566001,0 c 0.26262,0 0.48773,0.2252 0.48773,0.4503 l 0,180.0833 c 0,0.2627 -0.22511,0.4878 -0.48773,0.4878 l -142.566001,0 c -0.22511,0 -0.45021,-0.2251 -0.45021,-0.4878 z m 0.93793,180.0833 -0.48772,-0.4502 142.566001,0 -0.45021,0.4502 0,-180.0833 0.45021,0.4877 -142.566001,0 0.48772,-0.4877 z"/><text id="text3266" x="60.091" y="1099.68" xml:space="preserve" style="font-size:19.95923996px;font-style:normal;font-weight:400;text-align:start;text-anchor:start;fill:#000;font-family:Cambria">State</text><path style="fill:#fff;fill-opacity:1;fill-rule:evenodd;stroke:none" id="path3268" d="m 40.085309,1166.0857 0,29.6387 33.3717,0 0,-29.6387 -33.3717,0 z"/><path style="fill:#000;fill-opacity:1;fill-rule:nonzero;stroke:#000;stroke-width:.01875868px;stroke-linecap:butt;stroke-linejoin:round;stroke-opacity:1;stroke-dasharray:none" id="path3270" d="m 38.828479,1166.0857 c 0,-0.6941 0.56276,-1.2569 1.25683,-1.2569 l 33.3717,0 c 0.69407,0 1.25683,0.5628 1.25683,1.2569 l 0,29.6387 c 0,0.694 -0.56276,1.238 -1.25683,1.238 l -33.3717,0 c -0.69407,0 -1.25683,-0.544 -1.25683,-1.238 z m 2.4949,29.6387 -1.23807,-1.2569 33.3717,0 -1.23807,1.2569 0,-29.6387 1.23807,1.2568 -33.3717,0 1.23807,-1.2568 z"/><text id="text3272" x="50.979" y="1187.723" xml:space="preserve" style="font-size:19.95923996px;font-style:normal;font-weight:400;text-align:start;text-anchor:start;fill:#000;font-family:Calibri">A</text><path style="fill:#fff;fill-opacity:1;fill-rule:evenodd;stroke:none" id="path3274" d="m 95.967429,1166.0857 0,29.6387 33.390461,0 0,-29.6387 -33.390461,0 z"/><path style="fill:#000;fill-opacity:1;fill-rule:nonzero;stroke:#000;stroke-width:.01875868px;stroke-linecap:butt;stroke-linejoin:round;stroke-opacity:1;stroke-dasharray:none" id="path3276" d="m 94.729359,1166.0857 c 0,-0.6941 0.56276,-1.2569 1.23807,-1.2569 l 33.390461,0 c 0.69407,0 1.25683,0.5628 1.25683,1.2569 l 0,29.6387 c 0,0.694 -0.56276,1.238 -1.25683,1.238 l -33.390461,0 c -0.67531,0 -1.23807,-0.544 -1.23807,-1.238 z m 2.4949,29.6387 -1.25683,-1.2569 33.390461,0 -1.23807,1.2569 0,-29.6387 1.23807,1.2568 -33.390461,0 1.25683,-1.2568 z"/><text id="text3278" x="107.327" y="1187.723" xml:space="preserve" style="font-size:19.95923996px;font-style:normal;font-weight:400;text-align:start;text-anchor:start;fill:#000;font-family:Calibri">B</text><path style="fill:#fff;fill-opacity:1;fill-rule:evenodd;stroke:none" id="path3280" d="m 95.967429,1135.6966 0,30.0139 33.390461,0 0,-30.0139 -33.390461,0 z"/><path style="fill:#000;fill-opacity:1;fill-rule:nonzero;stroke:#000;stroke-width:.01875868px;stroke-linecap:butt;stroke-linejoin:round;stroke-opacity:1;stroke-dasharray:none" id="path3282" d="m 94.729359,1135.6966 c 0,-0.6941 0.56276,-1.2568 1.23807,-1.2568 l 33.390461,0 c 0.69407,0 1.25683,0.5627 1.25683,1.2568 l 0,30.0139 c 0,0.694 -0.56276,1.2381 -1.25683,1.2381 l -33.390461,0 c -0.67531,0 -1.23807,-0.5441 -1.23807,-1.2381 z m 2.4949,30.0139 -1.25683,-1.2569 33.390461,0 -1.23807,1.2569 0,-30.0139 1.23807,1.2381 -33.390461,0 1.25683,-1.2381 z"/><text id="text3284" x="107.327" y="1157.52" xml:space="preserve" style="font-size:19.95923996px;font-style:normal;font-weight:400;text-align:start;text-anchor:start;fill:#000;font-family:Calibri">C</text><path style="fill:#fff;fill-opacity:1;fill-rule:evenodd;stroke:none" id="path3286" d="m 25.078359,1195.7244 0,30.389 120.055581,0 0,-30.389 -120.055581,0 z"/><path style="fill:#000;fill-opacity:1;fill-rule:nonzero;stroke:#000;stroke-width:.01875868px;stroke-linecap:butt;stroke-linejoin:round;stroke-opacity:1;stroke-dasharray:none" id="path3288" d="m 23.821529,1195.7244 c 0,-0.6941 0.56276,-1.2569 1.25683,-1.2569 l 120.055581,0 c 0.67531,0 1.23808,0.5628 1.23808,1.2569 l 0,30.389 c 0,0.6941 -0.56277,1.2569 -1.23808,1.2569 l -120.055581,0 c -0.69407,0 -1.25683,-0.5628 -1.25683,-1.2569 z m 2.4949,30.389 -1.23807,-1.2568 120.055581,0 -1.25683,1.2568 0,-30.389 1.25683,1.238 -120.055581,0 1.23807,-1.238 z"/><text id="text3290" x="64.522" y="1217.737" xml:space="preserve" style="font-size:19.95923996px;font-style:normal;font-weight:400;text-align:start;text-anchor:start;fill:#000;font-family:Calibri">table</text></g><path id="path3292" d="m 238.53343,1006.0486 0,307.6424 585.27096,0 0,-307.6424 -585.27096,0 z" style="fill:#fff;fill-opacity:1;fill-rule:evenodd;stroke:none"/><path id="path3294" d="m 237.29536,1006.0486 c 0,-0.6753 0.56276,-1.2381 1.23807,-1.2381 l 585.27096,0 c 0.7128,0 1.2756,0.5628 1.2756,1.2381 l 0,307.6424 c 0,0.7129 -0.5628,1.2756 -1.2756,1.2756 l -585.27096,0 c -0.67531,0 -1.23807,-0.5627 -1.23807,-1.2756 z m 2.51366,307.6424 -1.27559,-1.238 585.27096,0 -1.2381,1.238 0,-307.6424 1.2381,1.2756 -585.27096,0 1.27559,-1.2756 z" style="fill:#000;fill-opacity:1;fill-rule:nonzero;stroke:#000;stroke-width:.03751737px;stroke-linecap:butt;stroke-linejoin:round;stroke-opacity:1;stroke-dasharray:none"/><text id="text3296" style="font-size:22.51042175px;font-style:normal;font-weight:400;text-align:start;text-anchor:start;fill:#000;font-family:Cambria" x="478.935" y="1032.536" xml:space="preserve">Soar Agent</text><path id="path3298" d="m 433.62379,1103.5938 0,180.0833 127.559,0 0,-180.0833 -127.559,0 z" style="fill:#fff;fill-opacity:1;fill-rule:evenodd;stroke:none"/><path id="path3300" d="m 433.17349,1103.5938 c 0,-0.2251 0.2252,-0.4503 0.4503,-0.4503 l 127.559,0 c 0.2626,0 0.4877,0.2252 0.4877,0.4503 l 0,180.0833 c 0,0.2627 -0.2251,0.4878 -0.4877,0.4878 l -127.559,0 c -0.2251,0 -0.4503,-0.2251 -0.4503,-0.4878 z m 0.938,180.0833 -0.4877,-0.4502 127.559,0 -0.4502,0.4502 0,-180.0833 0.4502,0.4877 -127.559,0 0.4877,-0.4877 z" style="fill:#000;fill-opacity:1;fill-rule:nonzero;stroke:#000;stroke-width:.03751737px;stroke-linecap:butt;stroke-linejoin:round;stroke-opacity:1;stroke-dasharray:none"/><text id="text3302" style="font-size:19.95923996px;font-style:normal;font-weight:400;text-align:start;text-anchor:start;fill:#000;font-family:Cambria" x="470.081" y="1127.68" xml:space="preserve">Filters</text><path id="path3304" d="m 453.56419,1163.0025 -46.4652,0 0,1.2568 46.4652,0 z m -7.1845,5.5526 8.4226,-4.9336 -8.4226,-4.9147 c -0.3002,-0.1689 -0.6941,-0.075 -0.8629,0.2251 -0.1689,0.3001 -0.075,0.694 0.2251,0.8629 l 7.5034,4.3708 0,-1.0693 -7.5034,4.3708 c -0.3002,0.1688 -0.394,0.5627 -0.2251,0.8629 0.1688,0.2814 0.5627,0.3939 0.8629,0.2251 z" style="fill:#000;fill-opacity:1;fill-rule:nonzero;stroke:#000;stroke-width:.01875868px;stroke-linecap:butt;stroke-linejoin:round;stroke-opacity:1;stroke-dasharray:none"/><path id="path3310" d="m 264.53299,1103.5938 0,180.0833 142.566,0 0,-180.0833 -142.566,0 z" style="fill:#fff;fill-opacity:1;fill-rule:evenodd;stroke:none"/><path id="path3312" d="m 264.04519,1103.5938 c 0,-0.2251 0.2252,-0.4503 0.4878,-0.4503 l 142.566,0 c 0.2626,0 0.4502,0.2252 0.4502,0.4503 l 0,180.0833 c 0,0.2627 -0.1876,0.4878 -0.4502,0.4878 l -142.566,0 c -0.2626,0 -0.4878,-0.2251 -0.4878,-0.4878 z m 0.938,180.0833 -0.4502,-0.4502 142.566,0 -0.4878,0.4502 0,-180.0833 0.4878,0.4877 -142.566,0 0.4502,-0.4877 z" style="fill:#000;fill-opacity:1;fill-rule:nonzero;stroke:#000;stroke-width:.03751737px;stroke-linecap:butt;stroke-linejoin:round;stroke-opacity:1;stroke-dasharray:none"/><text id="text3314" style="font-size:19.95923996px;font-style:normal;font-weight:400;text-align:start;text-anchor:start;fill:#000;font-family:Cambria" x="283.111" y="1127.68" xml:space="preserve">Scene Graph</text><path id="path3316" d="m 287.04339,1194.0857 0,29.6387 33.3717,0 0,-29.6387 -33.3717,0 z" style="fill:#fff;fill-opacity:1;fill-rule:evenodd;stroke:none"/><path id="path3318" d="m 285.78659,1194.0857 c 0,-0.6941 0.5627,-1.2569 1.2568,-1.2569 l 33.3717,0 c 0.6941,0 1.2568,0.5628 1.2568,1.2569 l 0,29.6387 c 0,0.694 -0.5627,1.238 -1.2568,1.238 l -33.3717,0 c -0.6941,0 -1.2568,-0.544 -1.2568,-1.238 z m 2.4949,29.6387 -1.2381,-1.2569 33.3717,0 -1.2381,1.2569 0,-29.6387 1.2381,1.2568 -33.3717,0 1.2381,-1.2568 z" style="fill:#000;fill-opacity:1;fill-rule:nonzero;stroke:#000;stroke-width:.01875868px;stroke-linecap:butt;stroke-linejoin:round;stroke-opacity:1;stroke-dasharray:none"/><text id="text3320" style="font-size:19.95923996px;font-style:normal;font-weight:400;text-align:start;text-anchor:start;fill:#000;font-family:Calibri" x="297.935" y="1215.723" xml:space="preserve">A</text><path id="path3322" d="m 342.92549,1194.0857 0,29.6387 33.3905,0 0,-29.6387 -33.3905,0 z" style="fill:#fff;fill-opacity:1;fill-rule:evenodd;stroke:none"/><path id="path3324" d="m 341.68739,1194.0857 c 0,-0.6941 0.5628,-1.2569 1.2381,-1.2569 l 33.3905,0 c 0.694,0 1.2568,0.5628 1.2568,1.2569 l 0,29.6387 c 0,0.694 -0.5628,1.238 -1.2568,1.238 l -33.3905,0 c -0.6753,0 -1.2381,-0.544 -1.2381,-1.238 z m 2.4949,29.6387 -1.2568,-1.2569 33.3905,0 -1.2569,1.2569 0,-29.6387 1.2569,1.2568 -33.3905,0 1.2568,-1.2568 z" style="fill:#000;fill-opacity:1;fill-rule:nonzero;stroke:#000;stroke-width:.01875868px;stroke-linecap:butt;stroke-linejoin:round;stroke-opacity:1;stroke-dasharray:none"/><text id="text3326" style="font-size:19.95923996px;font-style:normal;font-weight:400;text-align:start;text-anchor:start;fill:#000;font-family:Calibri" x="354.283" y="1215.723" xml:space="preserve">B</text><path id="path3328" d="m 342.92549,1163.6966 0,30.0139 33.3905,0 0,-30.0139 -33.3905,0 z" style="fill:#fff;fill-opacity:1;fill-rule:evenodd;stroke:none"/><path id="path3330" d="m 341.68739,1163.6966 c 0,-0.6941 0.5628,-1.2568 1.2381,-1.2568 l 33.3905,0 c 0.694,0 1.2568,0.5627 1.2568,1.2568 l 0,30.0139 c 0,0.694 -0.5628,1.2381 -1.2568,1.2381 l -33.3905,0 c -0.6753,0 -1.2381,-0.5441 -1.2381,-1.2381 z m 2.4949,30.0139 -1.2568,-1.2569 33.3905,0 -1.2569,1.2569 0,-30.0139 1.2569,1.2381 -33.3905,0 1.2568,-1.2381 z" style="fill:#000;fill-opacity:1;fill-rule:nonzero;stroke:#000;stroke-width:.01875868px;stroke-linecap:butt;stroke-linejoin:round;stroke-opacity:1;stroke-dasharray:none"/><text id="text3332" style="font-size:19.95923996px;font-style:normal;font-weight:400;text-align:start;text-anchor:start;fill:#000;font-family:Calibri" x="354.283" y="1185.52" xml:space="preserve">C</text><path id="path3334" d="m 272.03639,1223.7244 0,30.389 120.0556,0 0,-30.389 -120.0556,0 z" style="fill:#fff;fill-opacity:1;fill-rule:evenodd;stroke:none"/><path id="path3336" d="m 270.77959,1223.7244 c 0,-0.6941 0.5628,-1.2569 1.2381,-1.2569 l 120.0556,0 c 0.694,0 1.2568,0.5628 1.2568,1.2569 l 0,30.389 c 0,0.6941 -0.5628,1.2569 -1.2568,1.2569 l -120.0556,0 c -0.6753,0 -1.2381,-0.5628 -1.2381,-1.2569 z m 2.4949,30.389 -1.2568,-1.2568 120.0556,0 -1.2381,1.2568 0,-30.389 1.2381,1.238 -120.0556,0 1.2568,-1.238 z" style="fill:#000;fill-opacity:1;fill-rule:nonzero;stroke:#000;stroke-width:.01875868px;stroke-linecap:butt;stroke-linejoin:round;stroke-opacity:1;stroke-dasharray:none"/><text id="text3338" style="font-size:19.95923996px;font-style:normal;font-weight:400;text-align:start;text-anchor:start;fill:#000;font-family:Calibri" x="311.477" y="1245.737" xml:space="preserve">table</text><path id="path3340" d="m 245.5867,1051.0694 c 0,-0.2251 0.2251,-0.4502 0.45021,-0.4502 l 326.77628,0 c 0.2626,0 0.4502,0.2251 0.4502,0.4502 l 0,247.6147 c 0,0.2626 -0.1876,0.4877 -0.4502,0.4877 l -326.77628,0 c -0.22511,0 -0.45021,-0.2251 -0.45021,-0.4877 z m 0.93793,247.6147 -0.48772,-0.4502 326.77628,0 -0.4877,0.4502 0,-247.6147 0.4877,0.4878 -326.77628,0 0.48772,-0.4878 z" style="fill:#000;fill-opacity:1;fill-rule:nonzero;stroke:#000;stroke-width:.03751737px;stroke-linecap:butt;stroke-linejoin:round;stroke-opacity:1;stroke-dasharray:none"/><text id="text3342" style="font-size:22.51042175px;font-style:normal;font-weight:400;text-align:start;text-anchor:start;fill:#000;font-family:Cambria" x="391.818" y="1077.557" xml:space="preserve">SVS</text><path id="path3344" d="m 606.20369,1051.0694 0,247.6147 195.0903,0 0,-247.6147 -195.0903,0 z" style="fill:#fff;fill-opacity:1;fill-rule:evenodd;stroke:none"/><path id="path3346" d="m 605.75339,1051.0694 c 0,-0.2251 0.2251,-0.4502 0.4503,-0.4502 l 195.0903,0 c 0.2626,0 0.4877,0.2251 0.4877,0.4502 l 0,247.6147 c 0,0.2626 -0.2251,0.4877 -0.4877,0.4877 l -195.0903,0 c -0.2252,0 -0.4503,-0.2251 -0.4503,-0.4877 z m 0.938,247.6147 -0.4877,-0.4502 195.0903,0 -0.4502,0.4502 0,-247.6147 0.4502,0.4878 -195.0903,0 0.4877,-0.4878 z" style="fill:#000;fill-opacity:1;fill-rule:nonzero;stroke:#000;stroke-width:.03751737px;stroke-linecap:butt;stroke-linejoin:round;stroke-opacity:1;stroke-dasharray:none"/><text id="text3348" style="font-size:22.51042175px;font-style:normal;font-weight:400;text-align:start;text-anchor:start;fill:#000;font-family:Cambria" x="684.227" y="1077.557" xml:space="preserve">WM</text><path id="path3350" d="m 454.80229,1148.6146 0,30.0139 84.5642,0 0,-30.0139 -84.5642,0 z" style="fill:#fff;fill-opacity:1;fill-rule:evenodd;stroke:none"/><path id="path3352" d="m 454.33329,1148.6146 c 0,-0.2439 0.2064,-0.469 0.469,-0.469 l 84.5642,0 c 0.2626,0 0.4689,0.2251 0.4689,0.469 l 0,30.0139 c 0,0.2626 -0.2063,0.469 -0.4689,0.469 l -84.5642,0 c -0.2626,0 -0.469,-0.2064 -0.469,-0.469 z m 0.938,30.0139 -0.469,-0.469 84.5642,0 -0.469,0.469 0,-30.0139 0.469,0.469 -84.5642,0 0.469,-0.469 z" style="fill:#000;fill-opacity:1;fill-rule:nonzero;stroke:#000;stroke-width:.01875868px;stroke-linecap:butt;stroke-linejoin:round;stroke-opacity:1;stroke-dasharray:none"/><text id="text3354" style="font-size:17.558128360000001px;font-style:normal;font-weight:400;text-align:start;text-anchor:start;fill:#000;font-family:Cambria;fill-opacity:1" x="468.123" y="1170.149" xml:space="preserve">on(A,B)</text><path id="path3356" d="m 454.10819,1188.9083 0,29.6387 84.5642,0 0,-29.6387 -84.5642,0 z" style="fill:#fff;fill-opacity:1;fill-rule:evenodd;stroke:none"/><path id="path3358" d="m 453.63929,1188.9083 c 0,-0.2439 0.2063,-0.469 0.4689,-0.469 l 84.5642,0 c 0.2626,0 0.469,0.2251 0.469,0.469 l 0,29.6387 c 0,0.2626 -0.2064,0.4689 -0.469,0.4689 l -84.5642,0 c -0.2626,0 -0.4689,-0.2063 -0.4689,-0.4689 z m 0.9379,29.6387 -0.469,-0.469 84.5642,0 -0.469,0.469 0,-29.6387 0.469,0.4689 -84.5642,0 0.469,-0.4689 z" style="fill:#000;fill-opacity:1;fill-rule:nonzero;stroke:#000;stroke-width:.01875868px;stroke-linecap:butt;stroke-linejoin:round;stroke-opacity:1;stroke-dasharray:none"/><text id="text3360" style="font-size:17.55812836px;font-style:normal;font-weight:400;text-align:start;text-anchor:start;fill:#000;font-family:Cambria" x="468.026" y="1210.252" xml:space="preserve">on(B,C)</text><path id="path3362" d="m 452.87019,1203.1086 -45.7712,0 0,1.2568 45.7712,0 z m -7.1846,5.5338 8.4226,-4.9148 -8.4226,-4.9148 c -0.3002,-0.1688 -0.6941,-0.075 -0.8629,0.2251 -0.1688,0.3002 -0.075,0.6754 0.2251,0.8629 l 7.5035,4.3708 0,-1.088 -7.5035,4.3895 c -0.3001,0.1689 -0.3939,0.5628 -0.2251,0.8442 0.1688,0.3001 0.5627,0.4127 0.8629,0.2251 z" style="fill:#000;fill-opacity:1;fill-rule:nonzero;stroke:#000;stroke-width:.01875868px;stroke-linecap:butt;stroke-linejoin:round;stroke-opacity:1;stroke-dasharray:none"/><path id="path3364" d="m 454.10819,1231.5467 0,29.62 84.5642,0 0,-29.62 -84.5642,0 z" style="fill:#fff;fill-opacity:1;fill-rule:evenodd;stroke:none"/><path id="path3366" d="m 453.63929,1231.5467 c 0,-0.2626 0.2063,-0.4689 0.4689,-0.4689 l 84.5642,0 c 0.2626,0 0.469,0.2063 0.469,0.4689 l 0,29.62 c 0,0.2626 -0.2064,0.469 -0.469,0.469 l -84.5642,0 c -0.2626,0 -0.4689,-0.2064 -0.4689,-0.469 z m 0.9379,29.62 -0.469,-0.469 84.5642,0 -0.469,0.469 0,-29.62 0.469,0.469 -84.5642,0 0.469,-0.469 z" style="fill:#000;fill-opacity:1;fill-rule:nonzero;stroke:#000;stroke-width:.01875868px;stroke-linecap:butt;stroke-linejoin:round;stroke-opacity:1;stroke-dasharray:none"/><text id="text3368" style="font-size:17.55812836px;font-style:normal;font-weight:400;text-align:start;text-anchor:start;fill:#000;font-family:Cambria" x="465.778" y="1252.877" xml:space="preserve">clear(A)</text><path id="path3370" d="m 452.87019,1245.7283 -45.7712,0 0,1.2568 45.7712,0 z m -7.1846,5.5526 8.4226,-4.9148 -8.4226,-4.9335 c -0.3002,-0.1689 -0.6941,-0.056 -0.8629,0.2251 -0.1688,0.3001 -0.075,0.694 0.2251,0.8629 l 7.5035,4.3707 0,-1.0692 -7.5035,4.3708 c -0.3001,0.1688 -0.3939,0.5627 -0.2251,0.8629 0.1688,0.3001 0.5627,0.3939 0.8629,0.2251 z" style="fill:#000;fill-opacity:1;fill-rule:nonzero;stroke:#000;stroke-width:.01875868px;stroke-linecap:butt;stroke-linejoin:round;stroke-opacity:1;stroke-dasharray:none"/><path id="path3372" d="m 604.96559,1163.0213 -64.3423,0 0,1.238 64.3423,0 z m -7.1658,5.5525 8.4414,-4.9523 -8.4414,-4.9147 c -0.3002,-0.1501 -0.6754,-0.075 -0.8629,0.2251 -0.1876,0.3001 -0.075,0.7128 0.2251,0.8629 l 0,0 7.5034,4.3895 0,-1.088 -7.5034,4.3895 c -0.3002,0.1501 -0.4127,0.5628 -0.2251,0.8629 0.1875,0.2627 0.5627,0.3752 0.8629,0.2251 z m -49.9732,-9.867 -8.4414,4.9147 8.4414,4.9523 c 0.3002,0.1501 0.6753,0.038 0.8254,-0.2251 0.1876,-0.3001 0.075,-0.7128 -0.2251,-0.8629 l -7.5035,-4.3895 0,1.088 7.5035,-4.3895 c 0.3001,-0.1501 0.4127,-0.5628 0.2251,-0.8629 -0.1501,-0.3002 -0.5252,-0.3752 -0.8254,-0.2251 z" style="fill:#000;fill-opacity:1;fill-rule:nonzero;stroke:#000;stroke-width:.03751737px;stroke-linecap:butt;stroke-linejoin:round;stroke-opacity:1;stroke-dasharray:none"/><path id="path3374" d="m 604.96559,1203.1273 -65.0551,0 0,1.2381 65.0551,0 z m -7.1658,5.5151 8.4414,-4.9148 -8.4414,-4.9148 c -0.3002,-0.15 -0.6754,-0.075 -0.8629,0.2251 -0.1876,0.3002 -0.075,0.6754 0.2251,0.8629 l 0,0 7.5034,4.3896 0,-1.088 -7.5034,4.3895 c -0.3002,0.1501 -0.4127,0.5252 -0.2251,0.8254 0.1875,0.3001 0.5627,0.4127 0.8629,0.2251 z m -50.686,-9.8296 -8.4414,4.9148 8.4414,4.9148 c 0.3001,0.1876 0.6753,0.075 0.8629,-0.2251 0.1876,-0.3002 0.075,-0.6753 -0.2251,-0.8254 l -7.5035,-4.3895 0,1.088 7.5035,-4.3896 c 0.3001,-0.1875 0.4127,-0.5627 0.2251,-0.8629 -0.1876,-0.3001 -0.5628,-0.3751 -0.8629,-0.2251 z" style="fill:#000;fill-opacity:1;fill-rule:nonzero;stroke:#000;stroke-width:.03751737px;stroke-linecap:butt;stroke-linejoin:round;stroke-opacity:1;stroke-dasharray:none"/><path id="path3376" d="m 604.96559,1245.7471 -65.0551,0 0,1.238 65.0551,0 z m -7.1658,5.5525 8.4414,-4.9147 -8.4414,-4.9523 c -0.3002,-0.1501 -0.6754,-0.075 -0.8629,0.2251 -0.1876,0.3001 -0.075,0.7128 0.2251,0.8629 l 0,0 7.5034,4.3895 0,-1.088 -7.5034,4.3895 c -0.3002,0.1501 -0.4127,0.5628 -0.2251,0.8629 0.1875,0.3002 0.5627,0.3752 0.8629,0.2251 z m -50.686,-9.867 -8.4414,4.9523 8.4414,4.9147 c 0.3001,0.1501 0.6753,0.075 0.8629,-0.2251 0.1876,-0.3001 0.075,-0.7128 -0.2251,-0.8629 l -7.5035,-4.3895 0,1.088 7.5035,-4.3895 c 0.3001,-0.1501 0.4127,-0.5628 0.2251,-0.8629 -0.1876,-0.3002 -0.5628,-0.3752 -0.8629,-0.2251 z" style="fill:#000;fill-opacity:1;fill-rule:nonzero;stroke:#000;stroke-width:.03751737px;stroke-linecap:butt;stroke-linejoin:round;stroke-opacity:1;stroke-dasharray:none"/><text id="text3378" style="font-size:15.00694847px;font-style:normal;font-weight:400;text-align:start;text-anchor:start;fill:#000;font-family:Consolas" x="615.283" y="1097.569" xml:space="preserve">(S1 ^</text><text id="text3380" style="font-size:15.00694847px;font-style:normal;font-weight:400;text-align:start;text-anchor:start;fill:#000;font-family:Consolas" x="656.552" y="1097.569" xml:space="preserve">svs</text><text id="text3382" style="font-size:15.00694847px;font-style:normal;font-weight:400;text-align:start;text-anchor:start;fill:#000;font-family:Consolas" x="689.717" y="1097.569" xml:space="preserve">S3)</text><text id="text3384" style="font-size:15.00694847px;font-style:normal;font-weight:400;text-align:start;text-anchor:start;fill:#000;font-family:Consolas" x="615.283" y="1115.577" xml:space="preserve">(S3 ^command</text><text id="text3386" style="font-size:15.00694847px;font-style:normal;font-weight:400;text-align:start;text-anchor:start;fill:#000;font-family:Consolas" x="722.883" y="1115.577" xml:space="preserve">C3)</text><text id="text3388" style="font-size:15.00694847px;font-style:normal;font-weight:400;text-align:start;text-anchor:start;fill:#000;font-family:Consolas" x="615.283" y="1133.585" xml:space="preserve">(C3 ^extract E2)</text><text id="text3390" style="font-size:15.00694847px;font-style:normal;font-weight:400;text-align:start;text-anchor:start;fill:#000;font-family:Consolas" x="615.283" y="1151.594" xml:space="preserve">(E2 ^a A1 ^b</text><text id="text3392" style="font-size:15.00694847px;font-style:normal;font-weight:400;text-align:start;text-anchor:start;fill:#000;font-family:Consolas" x="722.883" y="1151.594" xml:space="preserve">B1</text><text id="text3394" style="font-size:15.00694847px;font-style:normal;font-weight:400;text-align:start;text-anchor:start;fill:#000;font-family:Consolas" x="648.298" y="1169.602" xml:space="preserve">^type on</text><text id="text3396" style="font-size:15.006948469999999px;font-style:normal;font-weight:400;text-align:start;text-anchor:start;fill:#000;font-family:Consolas;fill-opacity:1" x="648.298" y="1187.611" xml:space="preserve">^result R7</text><text id="text3398" style="font-size:15.00694847px;font-style:normal;font-weight:400;text-align:start;text-anchor:start;fill:#000;font-family:Consolas" x="731.136" y="1187.611" xml:space="preserve">)</text><text id="text3400" style="font-size:15.00694847px;font-style:normal;font-weight:400;text-align:start;text-anchor:start;fill:#000;font-family:Consolas" x="615.283" y="1205.619" xml:space="preserve">(A1 ^id</text><text id="text3402" style="font-size:15.00694847px;font-style:normal;font-weight:400;text-align:start;text-anchor:start;fill:#000;font-family:Consolas" x="681.463" y="1205.619" xml:space="preserve">A ^type node)</text><text id="text3404" style="font-size:15.00694847px;font-style:normal;font-weight:400;text-align:start;text-anchor:start;fill:#000;font-family:Consolas" x="615.283" y="1223.627" xml:space="preserve">(B1 ^id</text><text id="text3406" style="font-size:15.00694847px;font-style:normal;font-weight:400;text-align:start;text-anchor:start;fill:#000;font-family:Consolas" x="681.463" y="1223.627" xml:space="preserve">B ^type node)</text><text id="text3408" style="font-size:15.006948469999999px;font-style:normal;font-weight:400;text-align:start;text-anchor:start;fill:#000;font-family:Consolas;fill-opacity:1" x="615.283" y="1241.635" xml:space="preserve">(R7 ^record R17)</text><text id="text3410" style="font-size:15.006948469999999px;font-style:normal;font-weight:400;text-align:start;text-anchor:start;fill:#000;font-family:Consolas;fill-opacity:1" x="615.283" y="1259.644" xml:space="preserve">(R17 ^</text><text id="text3412" style="font-size:15.006948469999999px;font-style:normal;font-weight:400;text-align:start;text-anchor:start;fill:#000;font-family:Consolas;fill-opacity:1" x="664.806" y="1259.644" xml:space="preserve">params</text><text id="text3414" style="font-size:15.006948469999999px;font-style:normal;font-weight:400;text-align:start;text-anchor:start;fill:#000;font-family:Consolas;fill-opacity:1" x="722.883" y="1259.644" xml:space="preserve">P1</text><text id="text3416" style="font-size:15.006948469999999px;font-style:normal;font-weight:400;text-align:start;text-anchor:start;fill:#000;font-family:Consolas;fill-opacity:1" x="656.552" y="1277.652" xml:space="preserve">^value</text><text id="text3418" style="font-size:15.00694847px;font-style:normal;font-weight:400;text-align:start;text-anchor:start;fill:#000;fill-opacity:1;font-family:Consolas" x="714.629" y="1277.652" xml:space="preserve">false)</text><text id="text3420" style="font-size:15.006948469999999px;font-style:normal;font-weight:400;text-align:start;text-anchor:start;fill:#000;font-family:Consolas;fill-opacity:1" x="615.283" y="1295.66" xml:space="preserve">(P1 ^a</text><text id="text3422" style="font-size:15.006948469999999px;font-style:normal;font-weight:400;text-align:start;text-anchor:start;fill:#000;font-family:Consolas;fill-opacity:1" x="673.21" y="1295.66" xml:space="preserve">A</text><text id="text3424" style="font-size:15.006948469999999px;font-style:normal;font-weight:400;text-align:start;text-anchor:start;fill:#000;font-family:Consolas;fill-opacity:1" x="689.717" y="1295.66" xml:space="preserve">^b B)</text><path id="path3306" d="m 155.99522,1192.2285 105.74267,0 0,2.8138 -105.74267,0 z m 98.01413,-4.7271 10.52364,6.134 -10.52364,6.1529 c -0.67532,0.3939 -1.53822,0.1688 -1.93215,-0.5065 -0.39393,-0.6753 -0.16883,-1.5382 0.50649,-1.9321 l 8.4414,-4.9148 0,2.4199 -8.4414,-4.9148 c -0.67532,-0.3939 -0.90042,-1.2568 -0.50649,-1.9322 0.39393,-0.6753 1.25683,-0.9004 1.93215,-0.5064 z" style="fill:#000;fill-opacity:1;fill-rule:nonzero;stroke:#000;stroke-width:.01875868px;stroke-linecap:butt;stroke-linejoin:round;stroke-opacity:1;stroke-dasharray:none"/><text xml:space="preserve" style="font-size:32px;font-style:normal;font-variant:normal;font-weight:400;font-stretch:normal;text-align:start;line-height:125%;letter-spacing:0;word-spacing:0;writing-mode:lr-tb;text-anchor:start;fill:#000;fill-opacity:1;stroke:none;font-family:Times New Roman;-inkscape-font-specification:'Times New Roman,'" id="text4049" x="393.366" y="934.648"><tspan id="tspan4051" x="393.366" y="934.648" style="font-size:32px;font-style:normal;font-variant:normal;font-weight:400;font-stretch:normal;text-align:start;line-height:125%;writing-mode:lr-tb;text-anchor:start;font-family:Times New Roman;-inkscape-font-specification:'Times New Roman,'">(a)</tspan></text><text xml:space="preserve" style="font-size:32px;font-style:normal;font-variant:normal;font-weight:400;font-stretch:normal;text-align:start;line-height:125%;letter-spacing:0;word-spacing:0;writing-mode:lr-tb;text-anchor:start;fill:#000;fill-opacity:1;stroke:none;font-family:Times New Roman;-inkscape-font-specification:'Times New Roman,'" id="text4049-1" x="393.366" y="1348.621"><tspan id="tspan4051-7" x="393.366" y="1348.621" style="font-size:32px;font-style:normal;font-variant:normal;font-weight:400;font-stretch:normal;text-align:start;line-height:125%;writing-mode:lr-tb;text-anchor:start;font-family:Times New Roman;-inkscape-font-specification:'Times New Roman,'">(b)</tspan></text></g></svg>